<?xml version="1.0" encoding="utf-8" standalone="no"?>
<!DOCTYPE svg PUBLIC "-//W3C//DTD SVG 1.1//EN"
  "http://www.w3.org/Graphics/SVG/1.1/DTD/svg11.dtd">
<svg xmlns:xlink="http://www.w3.org/1999/xlink" width="540.282812pt" height="347.04pt" viewBox="0 0 540.282812 347.04" xmlns="http://www.w3.org/2000/svg" version="1.1">
 <metadata>
  <rdf:RDF xmlns:dc="http://purl.org/dc/elements/1.1/" xmlns:cc="http://creativecommons.org/ns#" xmlns:rdf="http://www.w3.org/1999/02/22-rdf-syntax-ns#">
   <cc:Work>
    <dc:type rdf:resource="http://purl.org/dc/dcmitype/StillImage"/>
    <dc:date>2024-01-10T22:03:13.557449</dc:date>
    <dc:format>image/svg+xml</dc:format>
    <dc:creator>
     <cc:Agent>
      <dc:title>Matplotlib v3.7.1, https://matplotlib.org/</dc:title>
     </cc:Agent>
    </dc:creator>
   </cc:Work>
  </rdf:RDF>
 </metadata>
 <defs>
  <style type="text/css">*{stroke-linejoin: round; stroke-linecap: butt}</style>
 </defs>
 <g id="figure_1">
  <g id="patch_1">
   <path d="M 0 347.04 
L 540.282812 347.04 
L 540.282812 0 
L 0 0 
z
" style="fill: #ffffff"/>
  </g>
  <g id="axes_1">
   <g id="patch_2">
    <path d="M 30.882812 339.84 
L 533.082813 339.84 
L 533.082813 7.2 
L 30.882812 7.2 
z
" style="fill: #ffffff"/>
   </g>
   <g id="matplotlib.axis_1">
    <g id="xtick_1">
     <g id="line2d_1">
      <path d="M 53.292768 339.84 
L 53.292768 7.2 
" clip-path="url(#p808be19cf8)" style="fill: none; stroke: #cccccc; stroke-linecap: round"/>
     </g>
    </g>
    <g id="xtick_2">
     <g id="line2d_2">
      <path d="M 103.37088 339.84 
L 103.37088 7.2 
" clip-path="url(#p808be19cf8)" style="fill: none; stroke: #cccccc; stroke-linecap: round"/>
     </g>
    </g>
    <g id="xtick_3">
     <g id="line2d_3">
      <path d="M 154.700944 339.84 
L 154.700944 7.2 
" clip-path="url(#p808be19cf8)" style="fill: none; stroke: #cccccc; stroke-linecap: round"/>
     </g>
    </g>
    <g id="xtick_4">
     <g id="line2d_4">
      <path d="M 205.613692 339.84 
L 205.613692 7.2 
" clip-path="url(#p808be19cf8)" style="fill: none; stroke: #cccccc; stroke-linecap: round"/>
     </g>
    </g>
    <g id="xtick_5">
     <g id="line2d_5">
      <path d="M 256.109121 339.84 
L 256.109121 7.2 
" clip-path="url(#p808be19cf8)" style="fill: none; stroke: #cccccc; stroke-linecap: round"/>
     </g>
    </g>
    <g id="xtick_6">
     <g id="line2d_6">
      <path d="M 307.439186 339.84 
L 307.439186 7.2 
" clip-path="url(#p808be19cf8)" style="fill: none; stroke: #cccccc; stroke-linecap: round"/>
     </g>
    </g>
    <g id="xtick_7">
     <g id="line2d_7">
      <path d="M 358.351933 339.84 
L 358.351933 7.2 
" clip-path="url(#p808be19cf8)" style="fill: none; stroke: #cccccc; stroke-linecap: round"/>
     </g>
    </g>
    <g id="xtick_8">
     <g id="line2d_8">
      <path d="M 408.430045 339.84 
L 408.430045 7.2 
" clip-path="url(#p808be19cf8)" style="fill: none; stroke: #cccccc; stroke-linecap: round"/>
     </g>
    </g>
    <g id="xtick_9">
     <g id="line2d_9">
      <path d="M 459.76011 339.84 
L 459.76011 7.2 
" clip-path="url(#p808be19cf8)" style="fill: none; stroke: #cccccc; stroke-linecap: round"/>
     </g>
    </g>
    <g id="xtick_10">
     <g id="line2d_10">
      <path d="M 510.672857 339.84 
L 510.672857 7.2 
" clip-path="url(#p808be19cf8)" style="fill: none; stroke: #cccccc; stroke-linecap: round"/>
     </g>
    </g>
   </g>
   <g id="matplotlib.axis_2">
    <g id="ytick_1">
     <g id="line2d_11">
      <path d="M 30.882812 307.289269 
L 533.082813 307.289269 
" clip-path="url(#p808be19cf8)" style="fill: none; stroke: #cccccc; stroke-linecap: round"/>
     </g>
     <g id="line2d_12"/>
     <g id="text_1">
      <!-- 60 -->
      <g style="fill: #262626" transform="translate(12.760937 310.868175) scale(0.1 -0.1)">
       <defs>
        <path id="ArialMT-36" d="M 3184 3459 
L 2625 3416 
Q 2550 3747 2413 3897 
Q 2184 4138 1850 4138 
Q 1581 4138 1378 3988 
Q 1113 3794 959 3422 
Q 806 3050 800 2363 
Q 1003 2672 1297 2822 
Q 1591 2972 1913 2972 
Q 2475 2972 2870 2558 
Q 3266 2144 3266 1488 
Q 3266 1056 3080 686 
Q 2894 316 2569 119 
Q 2244 -78 1831 -78 
Q 1128 -78 684 439 
Q 241 956 241 2144 
Q 241 3472 731 4075 
Q 1159 4600 1884 4600 
Q 2425 4600 2770 4297 
Q 3116 3994 3184 3459 
z
M 888 1484 
Q 888 1194 1011 928 
Q 1134 663 1356 523 
Q 1578 384 1822 384 
Q 2178 384 2434 671 
Q 2691 959 2691 1453 
Q 2691 1928 2437 2201 
Q 2184 2475 1800 2475 
Q 1419 2475 1153 2201 
Q 888 1928 888 1484 
z
" transform="scale(0.015625)"/>
        <path id="ArialMT-30" d="M 266 2259 
Q 266 3072 433 3567 
Q 600 4063 929 4331 
Q 1259 4600 1759 4600 
Q 2128 4600 2406 4451 
Q 2684 4303 2865 4023 
Q 3047 3744 3150 3342 
Q 3253 2941 3253 2259 
Q 3253 1453 3087 958 
Q 2922 463 2592 192 
Q 2263 -78 1759 -78 
Q 1097 -78 719 397 
Q 266 969 266 2259 
z
M 844 2259 
Q 844 1131 1108 757 
Q 1372 384 1759 384 
Q 2147 384 2411 759 
Q 2675 1134 2675 2259 
Q 2675 3391 2411 3762 
Q 2147 4134 1753 4134 
Q 1366 4134 1134 3806 
Q 844 3388 844 2259 
z
" transform="scale(0.015625)"/>
       </defs>
       <use xlink:href="#ArialMT-36"/>
       <use xlink:href="#ArialMT-30" x="55.615234"/>
      </g>
     </g>
    </g>
    <g id="ytick_2">
     <g id="line2d_13">
      <path d="M 30.882812 236.404197 
L 533.082813 236.404197 
" clip-path="url(#p808be19cf8)" style="fill: none; stroke: #cccccc; stroke-linecap: round"/>
     </g>
     <g id="line2d_14"/>
     <g id="text_2">
      <!-- 80 -->
      <g style="fill: #262626" transform="translate(12.760937 239.983104) scale(0.1 -0.1)">
       <defs>
        <path id="ArialMT-38" d="M 1131 2484 
Q 781 2613 612 2850 
Q 444 3088 444 3419 
Q 444 3919 803 4259 
Q 1163 4600 1759 4600 
Q 2359 4600 2725 4251 
Q 3091 3903 3091 3403 
Q 3091 3084 2923 2848 
Q 2756 2613 2416 2484 
Q 2838 2347 3058 2040 
Q 3278 1734 3278 1309 
Q 3278 722 2862 322 
Q 2447 -78 1769 -78 
Q 1091 -78 675 323 
Q 259 725 259 1325 
Q 259 1772 486 2073 
Q 713 2375 1131 2484 
z
M 1019 3438 
Q 1019 3113 1228 2906 
Q 1438 2700 1772 2700 
Q 2097 2700 2305 2904 
Q 2513 3109 2513 3406 
Q 2513 3716 2298 3927 
Q 2084 4138 1766 4138 
Q 1444 4138 1231 3931 
Q 1019 3725 1019 3438 
z
M 838 1322 
Q 838 1081 952 856 
Q 1066 631 1291 507 
Q 1516 384 1775 384 
Q 2178 384 2440 643 
Q 2703 903 2703 1303 
Q 2703 1709 2433 1975 
Q 2163 2241 1756 2241 
Q 1359 2241 1098 1978 
Q 838 1716 838 1322 
z
" transform="scale(0.015625)"/>
       </defs>
       <use xlink:href="#ArialMT-38"/>
       <use xlink:href="#ArialMT-30" x="55.615234"/>
      </g>
     </g>
    </g>
    <g id="ytick_3">
     <g id="line2d_15">
      <path d="M 30.882812 165.519126 
L 533.082813 165.519126 
" clip-path="url(#p808be19cf8)" style="fill: none; stroke: #cccccc; stroke-linecap: round"/>
     </g>
     <g id="line2d_16"/>
     <g id="text_3">
      <!-- 100 -->
      <g style="fill: #262626" transform="translate(7.2 169.098032) scale(0.1 -0.1)">
       <defs>
        <path id="ArialMT-31" d="M 2384 0 
L 1822 0 
L 1822 3584 
Q 1619 3391 1289 3197 
Q 959 3003 697 2906 
L 697 3450 
Q 1169 3672 1522 3987 
Q 1875 4303 2022 4600 
L 2384 4600 
L 2384 0 
z
" transform="scale(0.015625)"/>
       </defs>
       <use xlink:href="#ArialMT-31"/>
       <use xlink:href="#ArialMT-30" x="55.615234"/>
       <use xlink:href="#ArialMT-30" x="111.230469"/>
      </g>
     </g>
    </g>
    <g id="ytick_4">
     <g id="line2d_17">
      <path d="M 30.882812 94.634054 
L 533.082813 94.634054 
" clip-path="url(#p808be19cf8)" style="fill: none; stroke: #cccccc; stroke-linecap: round"/>
     </g>
     <g id="line2d_18"/>
     <g id="text_4">
      <!-- 120 -->
      <g style="fill: #262626" transform="translate(7.2 98.212961) scale(0.1 -0.1)">
       <defs>
        <path id="ArialMT-32" d="M 3222 541 
L 3222 0 
L 194 0 
Q 188 203 259 391 
Q 375 700 629 1000 
Q 884 1300 1366 1694 
Q 2113 2306 2375 2664 
Q 2638 3022 2638 3341 
Q 2638 3675 2398 3904 
Q 2159 4134 1775 4134 
Q 1369 4134 1125 3890 
Q 881 3647 878 3216 
L 300 3275 
Q 359 3922 746 4261 
Q 1134 4600 1788 4600 
Q 2447 4600 2831 4234 
Q 3216 3869 3216 3328 
Q 3216 3053 3103 2787 
Q 2991 2522 2730 2228 
Q 2469 1934 1863 1422 
Q 1356 997 1212 845 
Q 1069 694 975 541 
L 3222 541 
z
" transform="scale(0.015625)"/>
       </defs>
       <use xlink:href="#ArialMT-31"/>
       <use xlink:href="#ArialMT-32" x="55.615234"/>
       <use xlink:href="#ArialMT-30" x="111.230469"/>
      </g>
     </g>
    </g>
    <g id="ytick_5">
     <g id="line2d_19">
      <path d="M 30.882812 23.748983 
L 533.082813 23.748983 
" clip-path="url(#p808be19cf8)" style="fill: none; stroke: #cccccc; stroke-linecap: round"/>
     </g>
     <g id="line2d_20"/>
     <g id="text_5">
      <!-- 140 -->
      <g style="fill: #262626" transform="translate(7.2 27.327889) scale(0.1 -0.1)">
       <defs>
        <path id="ArialMT-34" d="M 2069 0 
L 2069 1097 
L 81 1097 
L 81 1613 
L 2172 4581 
L 2631 4581 
L 2631 1613 
L 3250 1613 
L 3250 1097 
L 2631 1097 
L 2631 0 
L 2069 0 
z
M 2069 1613 
L 2069 3678 
L 634 1613 
L 2069 1613 
z
" transform="scale(0.015625)"/>
       </defs>
       <use xlink:href="#ArialMT-31"/>
       <use xlink:href="#ArialMT-34" x="55.615234"/>
       <use xlink:href="#ArialMT-30" x="111.230469"/>
      </g>
     </g>
    </g>
   </g>
   <g id="line2d_21">
    <path d="M 53.710085 254.327728 
L 54.127403 263.079497 
L 54.54472 254.804047 
L 56.213991 249.684008 
L 56.631308 258.554782 
L 57.048626 257.393852 
L 57.465944 257.066391 
L 58.717896 264.539279 
L 59.135214 262.309437 
L 59.552532 262.158822 
L 59.969849 257.186911 
L 60.387167 250.256401 
L 62.473755 253.420303 
L 62.891072 261.164407 
L 63.30839 277.255295 
L 64.560343 287.500457 
L 64.97766 286.506069 
L 65.812296 278.008643 
L 66.229613 277.375814 
L 67.481566 283.311963 
L 67.898884 279.816626 
L 68.316201 281.654731 
L 68.733519 281.383569 
L 69.150836 279.876845 
L 70.402789 279.575532 
L 70.820107 279.0934 
L 71.237424 276.501973 
L 71.654742 277.315595 
L 72.07206 276.321234 
L 73.74133 277.315595 
L 74.158648 278.912634 
L 74.575965 282.649092 
L 74.993283 278.822238 
L 76.245236 278.008643 
L 76.662553 277.345745 
L 77.079871 280.660262 
L 77.497188 281.172545 
L 77.914506 278.581145 
L 79.166459 280.509674 
L 79.583776 282.166933 
L 80.001094 284.63784 
L 80.418412 284.185831 
L 80.835729 286.174606 
L 82.087682 284.668017 
L 82.505 282.679242 
L 82.922317 282.106713 
L 83.339635 279.033154 
L 83.756952 274.844741 
L 85.008905 276.923859 
L 85.426223 276.411577 
L 85.84354 277.586784 
L 86.260858 275.146027 
L 86.678176 279.605656 
L 87.930128 280.359004 
L 88.347446 276.592396 
L 88.764764 279.213947 
L 89.182081 279.003085 
L 89.599399 277.104679 
L 90.851352 276.532123 
L 91.268669 269.631737 
L 91.685987 269.601587 
L 92.103304 270.415182 
L 92.520622 268.486761 
L 93.772575 266.88964 
L 94.189892 270.776794 
L 94.60721 269.99335 
L 95.024528 273.548987 
L 96.693798 272.541404 
L 97.111116 275.045084 
L 97.528433 281.853776 
L 97.945751 283.10559 
L 99.615021 281.334707 
L 100.032339 279.777579 
L 100.449656 279.747077 
L 100.866974 277.701382 
L 101.284292 276.602239 
L 102.536244 274.770326 
L 102.953562 277.548711 
L 103.788197 280.357706 
L 104.205515 279.624935 
L 105.457468 277.945639 
L 105.874785 281.945417 
L 106.292103 281.823248 
L 106.70942 282.067478 
L 107.126738 283.471962 
L 108.378691 285.242818 
L 108.796008 280.449319 
L 109.213326 279.411207 
L 109.630644 277.212841 
L 110.047961 277.334983 
L 111.299914 276.235813 
L 111.717232 272.99947 
L 112.134549 270.831605 
L 112.551867 272.175032 
L 112.969184 275.503016 
L 114.638455 281.701106 
L 115.055772 281.609492 
L 115.47309 282.983475 
L 115.890408 285.731358 
L 117.14236 288.815112 
L 117.559678 285.609216 
L 117.976996 284.662745 
L 118.394313 284.632243 
L 118.811631 283.533046 
L 120.063584 284.998588 
L 120.480901 281.273676 
L 121.315536 278.892165 
L 121.732854 279.685993 
L 122.984807 279.808108 
L 123.402124 281.029392 
L 123.819442 282.983475 
L 124.23676 280.754661 
L 124.654077 279.411207 
L 125.90603 280.41871 
L 126.323348 319.347443 
L 127.5753 297.913757 
L 128.827253 295.837559 
L 129.661888 291.074509 
L 130.496524 297.089359 
L 131.748476 302.493567 
L 132.165794 302.43251 
L 132.583112 301.180696 
L 133.000429 302.43251 
L 133.417747 302.091515 
L 134.6697 302.122531 
L 135.504335 308.167153 
L 135.921652 308.384112 
L 136.33897 307.485191 
L 137.590923 309.159107 
L 138.425558 310.832968 
L 138.842876 313.312772 
L 139.260193 309.903018 
L 140.512146 311.700874 
L 140.929464 311.700874 
L 141.346781 313.436766 
L 141.764099 315.978561 
L 142.181416 317.373513 
L 143.433369 317.745469 
L 143.850687 319.171409 
L 144.268004 320.132321 
L 144.685322 317.06352 
L 145.10264 316.660536 
L 146.354592 319.915321 
L 146.77191 318.427403 
L 147.189228 323.108102 
L 147.606545 324.72 
L 148.023863 320.225273 
L 149.275816 313.622764 
L 149.693133 314.087712 
L 150.110451 310.584953 
L 150.527768 310.646943 
L 150.945086 315.451636 
L 152.197039 313.932743 
L 152.614356 316.381586 
L 153.031674 315.141657 
L 153.448992 314.676668 
L 153.866309 316.164572 
L 155.53558 317.218517 
L 155.952897 314.180732 
L 156.787532 310.336991 
L 158.039485 313.188818 
L 159.291438 300.386679 
L 159.708756 301.378592 
L 160.960708 301.161579 
L 161.378026 297.99984 
L 161.795344 299.022783 
L 162.212661 297.782853 
L 162.629979 295.551038 
L 163.881932 293.877095 
L 164.299249 293.815132 
L 164.716567 296.480961 
L 165.133884 290.467341 
L 165.551202 287.925533 
L 166.803155 285.228756 
L 167.220472 292.947172 
L 167.63779 296.357021 
L 168.055108 291.025322 
L 168.472425 288.514476 
L 169.724378 289.537445 
L 170.141696 292.017276 
L 170.559013 292.730199 
L 170.976331 289.165449 
L 171.393648 288.379246 
L 172.645601 287.97034 
L 173.062919 285.643071 
L 173.480236 284.856814 
L 173.897554 283.630284 
L 174.314872 279.478917 
L 175.566824 276.837113 
L 175.984142 275.044463 
L 176.40146 275.42184 
L 176.818777 278.4096 
L 177.236095 279.25878 
L 178.488048 273.597741 
L 178.905365 273.157468 
L 179.322683 269.414926 
L 179.74 269.760855 
L 180.157318 262.841946 
L 181.409271 258.942164 
L 181.826588 262.558859 
L 182.243906 261.804131 
L 182.661224 262.024241 
L 183.078541 251.960251 
L 184.330494 250.545031 
L 184.747812 248.091916 
L 185.165129 247.400085 
L 185.999764 241.204401 
L 187.251717 240.88992 
L 187.669035 239.977925 
L 188.086352 245.701779 
L 188.50367 247.840332 
L 188.920988 249.318501 
L 190.17294 243.940549 
L 190.590258 244.066342 
L 191.007576 242.147899 
L 191.842211 244.034867 
L 193.094164 246.236397 
L 193.511481 249.633009 
L 193.928799 245.701779 
L 194.346116 247.211342 
L 194.763434 246.393637 
L 196.015387 248.091916 
L 196.850022 247.274239 
L 197.26734 240.88992 
L 197.684657 243.689019 
L 199.353928 236.644182 
L 200.188563 240.764182 
L 200.60588 239.128691 
L 201.857833 236.109564 
L 202.275151 237.367542 
L 203.109786 237.430439 
L 203.527104 239.411805 
L 204.779056 241.550358 
L 205.196374 241.487434 
L 206.031009 238.31104 
L 206.448327 240.984265 
L 207.70028 238.782762 
L 208.117597 240.386751 
L 208.952232 236.235356 
L 209.36955 239.852133 
L 210.621503 241.550358 
L 211.456138 235.430415 
L 211.873456 235.430415 
L 212.290773 239.44666 
L 213.960044 239.478487 
L 214.377361 241.964753 
L 215.211996 253.662802 
L 216.463949 252.132796 
L 216.881267 252.92968 
L 217.298584 254.746532 
L 217.715902 259.272761 
L 218.13322 261.695185 
L 219.385172 257.615205 
L 220.219808 243.813513 
L 220.637125 242.060369 
L 221.054443 225.772356 
L 222.306396 217.931203 
L 222.723713 213.946811 
L 223.141031 208.241237 
L 223.558348 216.018682 
L 223.975666 220.16237 
L 225.644936 221.564907 
L 226.062254 219.875551 
L 226.479572 219.588651 
L 226.896889 217.261816 
L 228.148842 223.063005 
L 228.56616 235.685379 
L 228.983477 238.139738 
L 229.400795 247.670328 
L 229.818112 246.745975 
L 231.070065 237.24732 
L 231.487383 240.817262 
L 231.9047 227.493565 
L 232.322018 231.127296 
L 232.739336 236.832843 
L 233.991288 248.148458 
L 234.408606 240.944758 
L 234.825924 249.487207 
L 235.243241 269.377015 
L 235.660559 247.829678 
L 236.912512 283.210669 
L 237.329829 287.195034 
L 237.747147 293.538116 
L 238.164464 293.442473 
L 238.581782 300.582398 
L 239.833735 314.352317 
L 240.251052 304.821795 
L 240.66837 303.48302 
L 241.085688 284.613152 
L 241.503005 288.310644 
L 243.172276 277.090726 
L 243.589593 285.919993 
L 244.006911 280.469411 
L 244.424228 286.07937 
L 245.676181 278.556916 
L 246.093499 279.640673 
L 246.510816 269.536419 
L 246.928134 265.743339 
L 248.597404 263.990221 
L 249.014722 254.252799 
L 249.43204 255.25565 
L 249.849357 255.126261 
L 250.266675 249.982589 
L 251.518628 248.235637 
L 251.935945 259.978762 
L 252.353263 256.387891 
L 252.77058 254.543917 
L 253.187898 249.529687 
L 254.439851 245.971156 
L 254.857168 252.214783 
L 255.274486 248.97971 
L 255.691804 254.026389 
L 256.109121 251.955951 
L 257.361074 255.126261 
L 257.778392 243.77133 
L 258.195709 243.609628 
L 258.613027 247.491671 
L 259.030344 248.332766 
L 260.282297 235.58679 
L 260.699615 227.30512 
L 261.116932 232.448793 
L 261.53425 228.987364 
L 261.951568 226.496393 
L 263.20352 224.037761 
L 263.620838 224.911251 
L 264.038156 224.943591 
L 264.455473 219.023532 
L 264.872791 221.999745 
L 266.542061 226.496393 
L 266.959379 228.857948 
L 267.376696 228.696192 
L 267.794014 220.155745 
L 269.045967 226.52876 
L 269.463284 225.428806 
L 269.880602 225.914075 
L 270.29792 218.958797 
L 270.715237 216.338436 
L 271.96719 213.944567 
L 272.384508 208.833262 
L 272.801825 206.471652 
L 273.219143 221.482163 
L 274.888413 218.829381 
L 275.305731 209.189061 
L 275.723048 210.22428 
L 276.557684 207.086283 
L 277.809636 205.274731 
L 278.226954 205.145288 
L 278.644272 212.165274 
L 279.061589 206.180507 
L 279.478907 208.962597 
L 280.73086 207.959745 
L 281.148177 202.330885 
L 281.565495 199.225201 
L 281.982812 200.06635 
L 283.652083 199.645735 
L 284.069401 198.545835 
L 284.486718 198.7723 
L 285.321353 206.698089 
L 286.573306 203.366077 
L 287.407941 190.9229 
L 287.825259 192.756706 
L 288.242577 189.776896 
L 289.494529 194.001002 
L 289.911847 201.008388 
L 290.746482 198.945467 
L 291.1638 201.958023 
L 292.415753 201.794293 
L 292.83307 203.267784 
L 293.250388 202.285484 
L 294.085023 209.161912 
L 295.336976 205.789177 
L 295.754293 211.192114 
L 296.171611 214.597568 
L 296.588929 216.824219 
L 297.006246 215.678161 
L 298.258199 217.446421 
L 298.675517 216.496785 
L 299.092834 207.197176 
L 299.510152 209.915044 
L 299.927469 208.638002 
L 301.179422 204.446669 
L 301.59674 206.738785 
L 302.014057 205.26524 
L 302.431375 208.212277 
L 302.848693 209.32567 
L 304.100645 210.471673 
L 304.517963 211.945219 
L 304.935281 210.995637 
L 305.352598 211.159368 
L 305.769916 211.585066 
L 307.021869 206.34586 
L 307.439186 217.904839 
L 307.856504 212.305452 
L 308.273821 219.116389 
L 308.691139 219.116389 
L 310.360409 224.519299 
L 310.777727 219.90224 
L 311.195045 226.38577 
L 311.612362 226.22204 
L 312.864315 223.635236 
L 313.281633 222.259902 
L 313.69895 225.960071 
L 314.116268 226.451289 
L 314.533585 224.879478 
L 315.785538 228.219468 
L 316.202856 229.823971 
L 317.037491 238.632416 
L 318.706761 234.146315 
L 319.124079 235.42333 
L 319.541397 233.131268 
L 319.958714 234.60476 
L 320.376032 237.944722 
L 321.627985 232.017902 
L 322.045302 238.697854 
L 322.46262 234.833955 
L 322.879937 233.949893 
L 323.297255 232.771062 
L 324.549208 230.740833 
L 325.383843 234.270431 
L 325.801161 237.058469 
L 326.218478 233.606613 
L 327.470431 240.112019 
L 327.887749 240.311145 
L 328.305066 244.825153 
L 328.722384 240.112019 
L 329.139701 240.012483 
L 330.391654 241.406448 
L 330.808972 245.422586 
L 331.226289 252.790935 
L 331.643607 252.193529 
L 332.060925 237.489928 
L 333.312877 227.034796 
L 333.730195 227.997357 
L 334.147513 206.290508 
L 334.982148 211.766995 
L 336.234101 204.232644 
L 336.651418 191.78606 
L 337.486053 196.001324 
L 337.903371 191.221833 
L 339.155324 193.478823 
L 339.572641 190.657578 
L 339.989959 192.28393 
L 340.824594 185.247448 
L 342.076547 180.79988 
L 342.493865 174.891934 
L 342.911182 174.095321 
L 343.745817 171.805179 
L 344.99777 172.834043 
L 345.415088 174.626369 
L 345.832405 171.47323 
L 346.249723 172.303022 
L 346.667041 163.872548 
L 347.918993 168.652012 
L 348.336311 162.51168 
L 348.753629 159.259005 
L 349.588264 166.992509 
L 350.840217 174.095321 
L 351.257534 178.675658 
L 351.674852 172.634944 
L 352.092169 171.805179 
L 352.509487 173.265556 
L 353.76144 175.721699 
L 354.178757 178.742016 
L 354.596075 177.148924 
L 355.013393 177.215282 
L 356.682663 176.58467 
L 357.099981 172.435818 
L 357.517298 170.543901 
L 357.934616 164.304006 
L 359.603886 170.079237 
L 360.021204 166.461406 
L 360.438521 169.514956 
L 360.855839 165.76441 
L 362.525109 158.097344 
L 362.942427 155.574816 
L 363.359745 146.71283 
L 363.777062 145.101027 
L 364.19438 148.828318 
L 366.280968 141.776721 
L 366.698285 146.343457 
L 367.115603 147.686613 
L 368.367556 148.895486 
L 368.784873 154.6039 
L 369.202191 174.784962 
L 369.619509 170.016774 
L 370.036826 175.82594 
L 371.288779 176.430296 
L 371.706097 172.50158 
L 372.123414 160.816051 
L 372.540732 155.510541 
L 372.958049 154.838963 
L 374.210002 161.185425 
L 375.044637 170.553987 
L 375.461955 171.561355 
L 375.879273 169.244389 
L 377.548543 170.050304 
L 377.965861 163.032291 
L 378.383178 163.804622 
L 378.800496 167.330407 
L 380.052449 160.446678 
L 380.469766 163.099433 
L 380.887084 154.973273 
L 381.304401 159.540037 
L 381.721719 158.163323 
L 382.973672 155.913472 
L 383.390989 157.79395 
L 384.225625 165.181363 
L 384.642942 161.655551 
L 385.894895 163.636701 
L 386.312213 161.353292 
L 386.72953 157.290239 
L 387.146848 157.726754 
L 387.564165 156.551493 
L 389.233436 147.753782 
L 389.650753 167.229654 
L 390.068071 171.494213 
L 390.485389 172.669502 
L 391.737341 164.34189 
L 392.154659 167.901259 
L 392.571977 173.878321 
L 392.989294 171.124867 
L 393.406612 164.073216 
L 394.658565 161.554798 
L 395.075882 161.353292 
L 395.4932 156.551493 
L 395.910517 155.544152 
L 397.579788 163.535975 
L 397.997105 166.08795 
L 398.414423 166.658829 
L 398.831741 163.670285 
L 399.249058 158.834901 
L 400.501011 156.450767 
L 400.918329 156.551493 
L 401.335646 160.018248 
L 402.170281 153.186761 
L 403.422234 150.807629 
L 403.839552 149.380214 
L 404.256869 143.364404 
L 404.674187 145.913432 
L 405.091505 141.393151 
L 406.343457 141.359188 
L 406.760775 141.189212 
L 407.178093 139.523841 
L 407.59541 143.058549 
L 408.012728 140.985326 
L 409.264681 130.177316 
L 409.681998 132.82834 
L 410.099316 126.438722 
L 410.516633 125.419079 
L 410.933951 126.540665 
L 412.185904 124.943274 
L 412.603221 129.463609 
L 413.020539 129.225679 
L 413.437857 123.651738 
L 413.855174 124.22954 
L 415.107127 122.666139 
L 415.524445 121.578542 
L 415.941762 126.20082 
L 416.35908 121.918387 
L 416.776397 125.283092 
L 418.02835 125.99688 
L 418.445668 130.585195 
L 418.862985 130.109363 
L 419.280303 138.198342 
L 419.697621 135.207445 
L 421.366891 138.572231 
L 421.784209 141.325171 
L 422.201526 138.572231 
L 422.618844 138.062382 
L 423.870797 135.8532 
L 424.288114 138.130362 
L 424.705432 132.488468 
L 425.122749 124.875294 
L 425.540067 127.662278 
L 426.79202 127.730231 
L 427.209337 126.268773 
L 427.626655 127.288389 
L 428.043973 129.429592 
L 428.46129 135.479365 
L 429.713243 130.007366 
L 430.130561 130.109363 
L 430.547878 132.488468 
L 430.965196 129.973403 
L 431.382513 135.955143 
L 432.634466 135.887217 
L 433.051784 138.266322 
L 433.469101 137.110773 
L 433.886419 131.604784 
L 434.303737 128.511972 
L 435.973007 126.608618 
L 436.390325 123.141916 
L 436.807642 124.501432 
L 437.22496 123.719718 
L 438.89423 119.199383 
L 439.311548 116.621936 
L 439.728865 117.240515 
L 440.146183 116.140804 
L 441.398136 123.28899 
L 441.815453 121.12391 
L 442.232771 117.893489 
L 443.067406 113.769487 
L 444.319359 115.144172 
L 444.736677 114.559962 
L 445.153994 112.532329 
L 445.571312 111.432619 
L 445.988629 120.264752 
L 447.240582 123.185911 
L 447.6579 120.436595 
L 448.075217 124.457437 
L 448.492535 124.319963 
L 448.909853 126.622544 
L 450.161805 127.962806 
L 450.579123 125.350964 
L 450.996441 129.131254 
L 451.413758 122.532937 
L 451.831076 119.646119 
L 453.083029 113.013461 
L 453.500346 108.717671 
L 453.917664 116.862488 
L 454.334981 114.663013 
L 454.752299 111.604434 
L 456.004252 109.748644 
L 456.421569 108.648961 
L 456.838887 106.174565 
L 457.256205 106.174565 
L 457.673522 108.992592 
L 458.925475 105.590355 
L 459.342793 104.868671 
L 459.76011 134.11436 
L 460.177428 134.973545 
L 460.594745 136.348149 
L 462.264016 145.249047 
L 462.681333 140.678308 
L 463.098651 151.297522 
L 463.515969 153.3251 
L 464.767921 150.575783 
L 465.185239 154.012416 
L 465.602557 149.579206 
L 466.019874 148.513837 
L 466.437192 149.716652 
L 467.689145 154.287337 
L 468.106462 151.709862 
L 468.52378 154.252995 
L 468.941097 150.988205 
L 469.358415 151.98481 
L 470.610368 149.750994 
L 471.027685 151.056969 
L 471.445003 145.902021 
L 471.862321 149.235494 
L 472.279638 145.042836 
L 473.531591 146.28002 
L 473.948909 143.599467 
L 474.366226 144.252388 
L 474.783544 138.925651 
L 475.200861 137.860282 
L 476.452814 140.747045 
L 476.870132 146.829862 
L 477.287449 146.967363 
L 477.704767 141.123801 
L 478.122085 139.662937 
L 479.374037 146.271692 
L 479.791355 146.202116 
L 480.208673 142.862938 
L 481.043308 140.323807 
L 482.295261 142.54989 
L 482.712578 139.106416 
L 483.129896 142.897739 
L 483.547213 138.480293 
L 483.964531 121.088866 
L 485.216484 120.601893 
L 485.633801 114.619235 
L 486.051119 111.001809 
L 486.468437 112.775748 
L 486.885754 112.358351 
L 488.555025 117.819236 
L 488.972342 113.854015 
L 489.38966 114.271413 
L 489.806977 113.088769 
L 491.05893 113.540967 
L 491.476248 115.001858 
L 491.893565 111.767056 
L 492.310883 112.740974 
L 492.728201 115.627927 
L 493.980153 117.680112 
L 494.397471 106.44524 
L 494.814789 107.21046 
L 495.649424 114.688783 
L 496.901377 113.367043 
L 497.318694 118.967105 
L 497.736012 116.775742 
L 498.153329 113.436591 
L 498.570647 106.549617 
L 499.8226 97.853876 
L 500.239917 97.297355 
L 500.657235 96.045136 
L 501.074553 88.114642 
L 501.49187 83.523298 
L 502.743823 79.905873 
L 503.161141 77.192818 
L 503.578458 66.966665 
L 503.995776 61.575302 
L 504.413093 69.401474 
L 505.665046 64.775329 
L 506.082364 67.940556 
L 506.499681 60.636131 
L 506.916999 57.01876 
L 508.586269 52.427335 
L 509.003587 52.496937 
L 509.420905 49.123039 
L 509.838222 47.140375 
L 510.25554 48.983889 
L 510.25554 48.983889 
" clip-path="url(#p808be19cf8)" style="fill: none; stroke: #0272a2; stroke-width: 1.75; stroke-linecap: round"/>
   </g>
   <g id="line2d_22">
    <path d="M 53.710085 286.784586 
L 54.127403 297.78837 
L 54.54472 291.447776 
L 55.796673 288.0258 
L 56.213991 290.810377 
L 56.631308 286.985822 
L 57.048626 288.193559 
L 57.465944 287.354871 
L 58.717896 289.848952 
L 59.135214 282.43412 
L 59.552532 284.624861 
L 59.969849 282.26563 
L 60.387167 279.232253 
L 62.056437 278.996406 
L 62.473755 284.321493 
L 62.891072 281.119735 
L 63.30839 280.142302 
L 64.560343 287.220047 
L 64.97766 285.063052 
L 65.394978 278.356006 
L 65.812296 273.974551 
L 66.229613 276.064133 
L 67.481566 275.592276 
L 67.898884 273.536332 
L 68.316201 272.255613 
L 68.733519 274.783359 
L 69.150836 272.794909 
L 70.402789 272.087123 
L 70.820107 266.964137 
L 71.237424 269.255982 
L 71.654742 270.63786 
L 72.07206 266.323736 
L 73.74133 267.166346 
L 74.158648 265.346303 
L 74.575965 266.694489 
L 74.993283 263.357825 
L 76.245236 260.897436 
L 76.662553 261.268135 
L 77.497188 258.335943 
L 77.914506 255.066718 
L 79.166459 254.96556 
L 79.583776 256.313718 
L 80.001094 258.066349 
L 80.418412 261.099618 
L 80.835729 261.672633 
L 83.339635 253.752252 
L 83.756952 250.786287 
L 85.008905 254.257774 
L 85.426223 250.449281 
L 85.84354 250.516693 
L 86.260858 250.112221 
L 86.678176 257.156355 
L 87.930128 256.279999 
L 88.347446 253.68484 
L 88.764764 254.594834 
L 89.182081 252.201857 
L 89.599399 250.516693 
L 90.851352 251.460353 
L 91.268669 251.595231 
L 91.685987 251.999676 
L 92.103304 254.96556 
L 92.520622 253.68484 
L 93.772575 255.302593 
L 94.189892 254.797097 
L 94.60721 253.785945 
L 95.024528 255.336312 
L 96.693798 257.671422 
L 97.111116 261.46169 
L 97.528433 273.306272 
L 97.945751 269.786733 
L 99.615021 267.790089 
L 100.032339 262.409244 
L 100.449656 260.209526 
L 100.866974 255.607069 
L 101.284292 254.084201 
L 102.536244 255.065583 
L 102.953562 250.700028 
L 103.37088 253.47506 
L 103.788197 253.339695 
L 104.205515 253.644198 
L 105.457468 252.358287 
L 105.874785 259.668066 
L 106.292103 262.003123 
L 106.70942 261.326299 
L 107.126738 261.224789 
L 108.378691 264.439743 
L 109.213326 261.021714 
L 109.630644 260.717238 
L 110.047961 262.849139 
L 111.299914 263.526044 
L 112.134549 261.867785 
L 112.551867 263.999794 
L 112.969184 259.431192 
L 114.638455 263.729064 
L 115.055772 263.864456 
L 115.47309 260.987887 
L 115.890408 262.307734 
L 117.14236 263.729064 
L 117.559678 257.806733 
L 118.394313 248.906458 
L 118.811631 246.706712 
L 120.063584 244.913088 
L 120.480901 245.42072 
L 120.898219 242.61186 
L 121.315536 241.461205 
L 121.732854 241.698107 
L 122.984807 242.273475 
L 123.402124 237.637136 
L 123.819442 234.55752 
L 124.23676 232.493166 
L 124.654077 232.290119 
L 125.90603 233.271636 
L 126.323348 234.862104 
L 126.740665 239.193858 
L 127.157983 236.723383 
L 127.5753 235.335881 
L 128.827253 234.016061 
L 129.244571 232.459339 
L 129.661888 230.12431 
L 131.748476 231.985562 
L 132.165794 231.376447 
L 132.583112 231.0041 
L 133.000429 229.68436 
L 133.417747 234.881519 
L 134.6697 235.255138 
L 135.087017 237.463077 
L 135.921652 221.837637 
L 136.33897 222.754743 
L 137.590923 220.784599 
L 138.00824 218.508734 
L 138.425558 219.018286 
L 138.842876 221.022393 
L 139.260193 221.8716 
L 140.512146 219.154137 
L 140.929464 219.969355 
L 141.764099 227.544321 
L 142.181416 228.427464 
L 143.433369 237.463077 
L 143.850687 231.688468 
L 144.268004 232.571638 
L 145.10264 225.710055 
L 146.354592 232.367806 
L 146.77191 224.792895 
L 147.189228 234.813566 
L 147.606545 234.813566 
L 148.023863 231.960198 
L 149.275816 229.310715 
L 149.693133 232.775442 
L 150.110451 231.552616 
L 150.527768 233.352946 
L 150.945086 241.641214 
L 152.197039 237.599009 
L 153.866309 230.125932 
L 155.53558 234.405985 
L 155.952897 233.862417 
L 156.370215 228.155733 
L 156.787532 227.680226 
L 158.039485 233.862417 
L 158.456803 237.293262 
L 158.87412 232.843422 
L 159.291438 230.499578 
L 159.708756 233.692602 
L 160.960708 236.783738 
L 161.378026 236.036446 
L 161.795344 235.832615 
L 162.212661 237.225336 
L 162.629979 236.036446 
L 163.881932 237.463077 
L 164.299249 239.90881 
L 164.716567 238.482125 
L 165.133884 239.161491 
L 165.551202 241.946988 
L 166.803155 235.73078 
L 167.63779 249.79363 
L 168.055108 244.562481 
L 168.472425 241.437437 
L 169.724378 244.664451 
L 170.141696 253.258411 
L 170.559013 249.895572 
L 170.976331 247.72157 
L 171.393648 248.369568 
L 172.645601 247.72157 
L 173.062919 240.354951 
L 173.480236 241.037048 
L 173.897554 238.990784 
L 174.314872 237.59252 
L 175.566824 241.480431 
L 175.984142 245.265994 
L 176.40146 242.776401 
L 176.818777 242.469438 
L 177.236095 241.480431 
L 178.488048 238.035849 
L 178.905365 235.341613 
L 179.322683 233.431742 
L 179.74 234.795909 
L 180.157318 238.035849 
L 181.409271 239.536462 
L 181.826588 239.127204 
L 182.243906 236.467067 
L 182.661224 235.546256 
L 183.078541 234.35258 
L 184.330494 234.28433 
L 184.747812 232.306343 
L 185.582447 233.056582 
L 185.999764 227.63396 
L 187.251717 232.579128 
L 187.669035 232.476807 
L 188.086352 233.841027 
L 188.50367 234.557168 
L 188.920988 234.35258 
L 190.17294 231.79471 
L 190.590258 228.622993 
L 191.842211 228.520699 
L 193.094164 231.726514 
L 193.511481 232.238093 
L 193.928799 229.441564 
L 194.346116 229.236894 
L 194.763434 228.418324 
L 196.015387 233.909197 
L 196.432704 231.555996 
L 196.850022 230.362293 
L 197.26734 226.74722 
L 197.684657 225.451277 
L 198.93661 225.28076 
L 199.353928 223.029826 
L 199.771245 223.473237 
L 200.188563 222.040793 
L 200.60588 224.393966 
L 201.857833 222.040793 
L 202.275151 222.279533 
L 203.109786 222.279533 
L 203.527104 221.870275 
L 204.779056 223.916539 
L 206.031009 223.404986 
L 206.448327 227.020032 
L 207.70028 225.485429 
L 208.117597 227.12238 
L 208.534915 225.928731 
L 208.952232 225.144286 
L 209.36955 228.827609 
L 210.621503 229.646125 
L 211.03882 226.289668 
L 211.456138 220.672732 
L 212.290773 215.124344 
L 213.960044 212.624152 
L 214.377361 205.329028 
L 214.794679 209.199174 
L 215.211996 210.32944 
L 216.463949 213.103688 
L 216.881267 213.274909 
L 217.298584 214.644862 
L 217.715902 214.576341 
L 218.13322 221.494764 
L 219.385172 221.768765 
L 220.219808 213.206415 
L 220.637125 213.514596 
L 221.054443 218.994544 
L 222.306396 217.52181 
L 222.723713 214.542135 
L 223.141031 215.843622 
L 223.558348 216.220377 
L 223.975666 212.863893 
L 225.644936 215.535387 
L 226.062254 213.891405 
L 228.148842 230.091374 
L 228.56616 242.078702 
L 228.983477 241.290931 
L 229.818112 256.120947 
L 231.070065 240.434693 
L 231.487383 252.83301 
L 231.9047 238.790766 
L 232.322018 244.167906 
L 232.739336 239.989498 
L 233.991288 256.155234 
L 234.408606 242.934886 
L 235.243241 263.9641 
L 235.660559 240.297733 
L 236.912512 267.662999 
L 237.329829 247.695611 
L 237.747147 248.483328 
L 238.164464 264.786078 
L 238.581782 287.048231 
L 239.833735 304.789414 
L 240.251052 281.260075 
L 240.66837 277.629589 
L 241.085688 260.299408 
L 241.503005 264.58057 
L 242.754958 248.209353 
L 243.172276 249.682034 
L 243.589593 257.696462 
L 244.006911 247.866831 
L 244.424228 247.832598 
L 245.676181 236.598808 
L 246.093499 239.338714 
L 246.510816 228.995368 
L 246.928134 225.26221 
L 248.597404 225.912913 
L 249.014722 213.359194 
L 249.43204 207.168378 
L 249.849357 189.76516 
L 250.266675 189.730792 
L 251.518628 182.88646 
L 251.935945 196.47191 
L 252.353263 191.55362 
L 252.77058 196.850287 
L 253.187898 196.437514 
L 254.439851 193.376555 
L 254.857168 205.379918 
L 255.274486 202.559593 
L 255.691804 203.213135 
L 256.109121 210.917328 
L 257.361074 210.986038 
L 257.778392 199.980118 
L 258.195709 206.686867 
L 258.613027 196.67831 
L 259.030344 197.675753 
L 260.282297 189.524446 
L 260.699615 197.331798 
L 261.116932 202.97234 
L 261.53425 204.279289 
L 261.951568 210.779719 
L 263.20352 209.47277 
L 263.620838 216.523447 
L 264.038156 210.091808 
L 264.455473 209.059969 
L 264.872791 205.345496 
L 266.542061 212.189854 
L 267.376696 203.178767 
L 267.794014 193.479742 
L 269.045967 200.048882 
L 269.463284 201.390227 
L 269.880602 205.586292 
L 270.29792 216.420261 
L 270.715237 210.882932 
L 271.96719 201.5966 
L 272.384508 209.47277 
L 272.801825 202.97234 
L 273.219143 218.036796 
L 273.63646 213.771994 
L 275.305731 211.295625 
L 275.723048 207.30596 
L 276.140366 209.438374 
L 276.557684 208.06258 
L 277.809636 209.232001 
L 278.226954 205.930193 
L 278.644272 219.687674 
L 279.061589 211.708371 
L 279.478907 214.838229 
L 280.73086 213.80639 
L 281.148177 205.483105 
L 281.565495 204.760826 
L 281.982812 202.731544 
L 283.652083 200.186464 
L 284.069401 201.940528 
L 284.486718 201.527836 
L 284.904036 197.778886 
L 285.321353 199.94575 
L 286.573306 199.773745 
L 287.407941 185.962832 
L 287.825259 187.102265 
L 288.242577 177.262008 
L 289.494529 177.848976 
L 289.911847 180.921886 
L 290.329165 174.016416 
L 290.746482 171.841224 
L 291.1638 178.297821 
L 292.415753 174.707004 
L 292.83307 175.155849 
L 293.250388 165.971649 
L 294.085023 172.46275 
L 295.336976 172.3246 
L 295.754293 174.914188 
L 296.171611 167.283654 
L 296.588929 168.63019 
L 297.006246 170.425599 
L 298.258199 174.53435 
L 298.675517 177.918037 
L 299.092834 172.428192 
L 299.510152 170.874472 
L 299.927469 174.707004 
L 301.59674 171.357821 
L 302.014057 173.015133 
L 302.431375 169.044532 
L 302.848693 166.385936 
L 304.100645 169.873189 
L 304.517963 166.144248 
L 304.935281 163.658279 
L 305.352598 135.691254 
L 305.769916 137.417628 
L 307.021869 141.975198 
L 307.439186 152.057117 
L 307.856504 142.078817 
L 308.273821 155.578927 
L 308.691139 160.30915 
L 310.360409 164.866746 
L 310.777727 154.612174 
L 311.195045 160.861614 
L 311.612362 158.444734 
L 312.864315 155.026462 
L 313.281633 151.953551 
L 313.69895 154.991958 
L 314.116268 151.677333 
L 314.533585 150.986799 
L 315.785538 154.128825 
L 316.202856 158.099399 
L 317.037491 171.495944 
L 317.454809 162.760588 
L 318.706761 159.342398 
L 319.124079 156.752836 
L 319.541397 144.184976 
L 319.958714 144.840924 
L 320.376032 152.229797 
L 321.627985 145.117224 
L 322.045302 153.092984 
L 322.46262 147.948419 
L 322.879937 145.186231 
L 323.297255 141.353753 
L 324.549208 136.519911 
L 324.966525 145.7732 
L 325.383843 146.673865 
L 325.801161 148.163527 
L 326.218478 140.022576 
L 327.470431 145.669283 
L 327.887749 144.56073 
L 328.305066 152.978819 
L 328.722384 140.680796 
L 329.139701 146.535337 
L 330.391654 142.343625 
L 330.808972 143.798594 
L 331.226289 151.281324 
L 331.643607 156.200534 
L 332.060925 155.819479 
L 333.312877 147.609223 
L 334.56483 126.650639 
L 334.982148 123.567534 
L 336.234101 140.992573 
L 336.651418 136.073391 
L 337.068736 129.699159 
L 337.486053 132.124178 
L 337.903371 129.872407 
L 339.155324 126.165694 
L 339.572641 128.278829 
L 339.989959 139.67616 
L 340.407277 135.415171 
L 340.824594 135.796198 
L 342.076547 141.408267 
L 342.493865 147.158891 
L 342.911182 151.315963 
L 343.745817 147.124225 
L 344.99777 145.045675 
L 345.415088 144.110398 
L 345.832405 145.288201 
L 346.249723 147.436056 
L 346.667041 146.154255 
L 347.918993 148.648498 
L 348.753629 151.62774 
L 349.170946 150.934936 
L 349.588264 149.202802 
L 350.840217 149.999604 
L 351.257534 147.713167 
L 351.674852 148.094222 
L 352.092169 143.105762 
L 352.509487 142.447542 
L 353.76144 145.496062 
L 354.178757 144.837869 
L 354.596075 147.713167 
L 355.013393 144.595342 
L 356.682663 146.535337 
L 357.099981 144.664647 
L 357.517298 144.283592 
L 357.934616 140.646184 
L 359.603886 141.96257 
L 360.021204 137.28586 
L 360.438521 138.082636 
L 360.855839 134.375869 
L 361.273157 133.301982 
L 362.525109 135.969447 
L 362.942427 142.897901 
L 363.359745 131.43132 
L 363.777062 137.205117 
L 364.19438 132.822554 
L 366.280968 127.292283 
L 366.698285 127.083611 
L 367.115603 127.46618 
L 368.367556 120.92719 
L 368.784873 120.892389 
L 369.202191 122.422801 
L 369.619509 101.205925 
L 370.036826 90.0757 
L 371.288779 93.727765 
L 371.706097 101.727618 
L 372.123414 101.797193 
L 372.540732 103.466728 
L 372.958049 88.545289 
L 374.210002 86.910555 
L 374.62732 84.649725 
L 375.044637 84.162779 
L 375.879273 73.936951 
L 377.548543 74.667315 
L 377.965861 77.380344 
L 378.383178 83.745409 
L 378.800496 91.988708 
L 380.052449 93.69299 
L 380.469766 99.779809 
L 380.887084 94.284312 
L 381.304401 97.066862 
L 381.721719 103.327605 
L 382.973672 94.875607 
L 383.390989 93.762593 
L 384.225625 116.440332 
L 384.642942 112.127398 
L 385.894895 117.762072 
L 386.312213 114.040378 
L 386.72953 116.892503 
L 387.146848 111.188335 
L 387.564165 114.005577 
L 388.816118 109.170924 
L 389.233436 108.753553 
L 389.650753 110.840432 
L 390.068071 109.13615 
L 390.485389 101.692817 
L 391.737341 97.449458 
L 392.154659 100.858049 
L 392.571977 109.449225 
L 392.989294 105.866655 
L 393.406612 95.362553 
L 394.658565 94.806032 
L 395.075882 103.431927 
L 395.4932 103.118879 
L 395.910517 106.249251 
L 397.579788 103.049304 
L 398.414423 102.179762 
L 398.831741 103.327605 
L 399.249058 99.432014 
L 400.501011 98.945069 
L 400.918329 92.093004 
L 401.335646 95.793443 
L 401.752964 87.275521 
L 402.170281 85.844239 
L 403.422234 85.215872 
L 403.839552 101.029892 
L 404.256869 91.95342 
L 404.674187 88.811557 
L 405.091505 89.474833 
L 406.343457 92.023212 
L 406.760775 95.095284 
L 407.178093 95.968017 
L 407.59541 97.504026 
L 408.012728 100.75059 
L 409.264681 102.670629 
L 409.681998 109.61766 
L 410.099316 106.231431 
L 410.516633 105.253944 
L 410.933951 104.695422 
L 412.185904 104.730304 
L 412.603221 106.650316 
L 413.020539 113.771866 
L 413.855174 106.929644 
L 415.107127 112.410431 
L 415.524445 111.572581 
L 415.941762 113.667165 
L 416.35908 108.709964 
L 416.776397 111.048914 
L 418.02835 110.490392 
L 418.445668 106.615406 
L 418.862985 112.375494 
L 419.280303 116.075907 
L 419.697621 112.724587 
L 421.366891 150.636327 
L 421.784209 146.761422 
L 422.201526 138.732203 
L 422.618844 138.418019 
L 423.870797 135.939432 
L 424.288114 143.270438 
L 425.122749 135.415793 
L 425.540067 136.253589 
L 426.79202 134.263759 
L 427.209337 134.508124 
L 427.626655 135.729976 
L 428.043973 130.24919 
L 428.46129 134.787425 
L 429.713243 130.912466 
L 430.130561 132.58814 
L 430.547878 133.007051 
L 431.382513 126.444049 
L 432.634466 116.040998 
L 433.051784 110.76964 
L 433.469101 115.238084 
L 433.886419 110.944186 
L 434.303737 107.872168 
L 435.973007 105.149216 
L 436.390325 101.483686 
L 436.807642 103.61318 
L 437.22496 101.937561 
L 438.476913 105.184125 
L 438.89423 105.742647 
L 439.311548 109.352068 
L 439.728865 111.139202 
L 440.146183 108.160609 
L 441.398136 103.675184 
L 441.815453 103.885451 
L 442.232771 103.009365 
L 442.650089 105.567478 
L 443.067406 96.631645 
L 444.319359 101.117097 
L 444.736677 100.100861 
L 445.571312 95.615408 
L 445.988629 96.000871 
L 447.240582 96.211165 
L 447.6579 92.006041 
L 448.075217 93.933381 
L 448.492535 91.690668 
L 448.909853 91.830846 
L 450.161805 88.36163 
L 450.579123 89.973596 
L 450.996441 94.31887 
L 451.413758 89.58816 
L 451.831076 88.712075 
L 453.083029 83.105252 
L 453.500346 79.495858 
L 453.917664 85.663365 
L 454.334981 79.390779 
L 454.752299 77.288217 
L 456.004252 78.970272 
L 456.421569 80.161704 
L 456.838887 82.82495 
L 457.256205 80.266837 
L 457.673522 83.350564 
L 459.342793 77.112994 
L 460.177428 69.683993 
L 460.594745 68.107099 
L 462.264016 70.034438 
L 462.681333 67.686619 
L 463.098651 71.471154 
L 463.515969 68.597722 
L 464.767921 76.236936 
L 465.602557 73.188254 
L 466.019874 73.363476 
L 467.689145 82.369345 
L 468.106462 81.458269 
L 468.52378 83.140297 
L 468.941097 80.862539 
L 469.358415 84.121489 
L 470.610368 97.40257 
L 471.027685 103.850406 
L 471.445003 101.327337 
L 471.862321 105.987985 
L 472.279638 109.21189 
L 473.531591 115.099041 
L 473.948909 113.872565 
L 474.366226 111.734986 
L 474.783544 106.75891 
L 475.200861 105.076882 
L 476.452814 110.368304 
L 476.870132 108.826428 
L 477.287449 109.947797 
L 477.704767 106.359657 
L 478.122085 106.641068 
L 479.374037 108.998 
L 479.791355 100.133201 
L 480.208673 86.167644 
L 481.043308 74.172014 
L 482.295261 74.664476 
L 482.712578 69.211947 
L 483.129896 70.689413 
L 483.547213 70.689413 
L 483.964531 66.538452 
L 485.216484 66.362553 
L 485.633801 70.689413 
L 486.051119 67.206812 
L 486.468437 65.834939 
L 486.885754 82.438758 
L 488.137707 73.890577 
L 488.555025 75.192145 
L 488.972342 70.302437 
L 489.38966 72.307598 
L 489.806977 68.086251 
L 491.05893 64.603676 
L 491.476248 59.502917 
L 491.893565 67.488223 
L 492.728201 73.749885 
L 493.980153 79.307954 
L 494.397471 82.051808 
L 494.814789 79.976314 
L 495.649424 77.126947 
L 496.901377 69.563744 
L 497.318694 77.513924 
L 497.736012 74.101655 
L 498.570647 61.683896 
L 499.8226 53.944794 
L 500.657235 54.296592 
L 501.074553 53.73377 
L 501.49187 47.26103 
L 502.743823 41.667754 
L 503.161141 52.29143 
L 503.578458 43.074888 
L 503.995776 41.210499 
L 504.413093 37.622332 
L 505.665046 45.115203 
L 506.082364 44.094965 
L 506.499681 31.008873 
L 506.916999 30.410899 
L 508.586269 22.32 
L 509.003587 25.802547 
L 509.420905 23.269825 
L 509.838222 23.938158 
L 510.25554 24.852776 
L 510.25554 24.852776 
" clip-path="url(#p808be19cf8)" style="fill: none; stroke: #9fc377; stroke-width: 1.75; stroke-linecap: round"/>
   </g>
   <g id="patch_3">
    <path d="M 30.882812 339.84 
L 30.882812 7.2 
" style="fill: none; stroke: #cccccc; stroke-width: 1.25; stroke-linejoin: miter; stroke-linecap: square"/>
   </g>
   <g id="patch_4">
    <path d="M 533.082813 339.84 
L 533.082813 7.2 
" style="fill: none; stroke: #cccccc; stroke-width: 1.25; stroke-linejoin: miter; stroke-linecap: square"/>
   </g>
   <g id="patch_5">
    <path d="M 30.882812 339.84 
L 533.082812 339.84 
" style="fill: none; stroke: #cccccc; stroke-width: 1.25; stroke-linejoin: miter; stroke-linecap: square"/>
   </g>
   <g id="patch_6">
    <path d="M 30.882812 7.2 
L 533.082812 7.2 
" style="fill: none; stroke: #cccccc; stroke-width: 1.25; stroke-linejoin: miter; stroke-linecap: square"/>
   </g>
  </g>
 </g>
 <defs>
  <clipPath id="p808be19cf8">
   <rect x="30.882812" y="7.2" width="502.2" height="332.64"/>
  </clipPath>
 </defs>
</svg>
